<?xml version="1.0"?>
<svg xmlns="http://www.w3.org/2000/svg" viewBox="0 0 64 64" width="512" height="512"><g id="flat"><polygon points="61 55 23 55 23 3 51 3 61 13 61 55" style="fill:#87ced9"/><path d="M38,42.22A11.494,11.494,0,0,0,29,31l3-6H23V55H38.75L38,54Z" style="fill:#73bec9"/><polygon points="51 3 51 13 61 13 51 3" style="fill:#e8594a"/><path d="M34.75,61H5.25A2.25,2.25,0,0,1,3,58.75H3a2.249,2.249,0,0,1,.45-1.35L6,54V42.22A11.494,11.494,0,0,1,15,31H25a11.494,11.494,0,0,1,9,11.22V54l2.55,3.4A2.249,2.249,0,0,1,37,58.75h0A2.25,2.25,0,0,1,34.75,61Z" style="fill:#fdbb3d"/><path d="M34,54V42.22a11.455,11.455,0,0,0-1.7-6c-7.653,11.939-20.852,18.442-29.053,21.5A2.247,2.247,0,0,0,5.25,61h29.5a2.25,2.25,0,0,0,1.8-3.6Z" style="fill:#fdaf33"/><polygon points="25 31 15 31 12 25 28 25 25 31" style="fill:#f7b016"/><path d="M21.5,45h-3a1.5,1.5,0,0,1,0-3H24V40H21V38H19v2h-.5a3.5,3.5,0,0,0,0,7h3a1.5,1.5,0,0,1,0,3H16v2h3v2h2V52h.5a3.5,3.5,0,0,0,0-7Z" style="fill:#e8594a"/><path d="M27,10v5.518a6,6,0,0,0,3.023,5.21L34,23l3.977-2.272A6,6,0,0,0,41,15.518V10h0a9,9,0,0,1-5.4-1.8L34,7,32.4,8.2A9,9,0,0,1,27,10Z" style="fill:#4398d1"/><rect x="33" y="11" width="2" height="2" style="fill:#5ea9db"/><rect x="33" y="17" width="2" height="2" style="fill:#5ea9db"/><rect x="30" y="13.917" width="2" height="2" style="fill:#5ea9db"/><rect x="36" y="14" width="2" height="2" style="fill:#5ea9db"/><rect x="31" y="27" width="25" height="2" style="fill:#73bec9"/><rect x="35" y="32" width="10" height="2" style="fill:#73bec9"/><rect x="47" y="32" width="9" height="2" style="fill:#73bec9"/><rect x="38" y="37" width="18" height="2" style="fill:#73bec9"/><rect x="38" y="42" width="11" height="2" style="fill:#73bec9"/><rect x="51" y="42" width="5" height="2" style="fill:#73bec9"/><rect x="38" y="47" width="18" height="2" style="fill:#73bec9"/><rect x="46" y="22" width="10" height="2" style="fill:#73bec9"/><rect x="46" y="17" width="10" height="2" style="fill:#73bec9"/><rect x="51" y="13" width="10" height="2" style="fill:#73bec9"/></g></svg>
