<?xml version="1.0" encoding="iso-8859-1"?>
<!-- Generator: Adobe Illustrator 19.0.0, SVG Export Plug-In . SVG Version: 6.00 Build 0)  -->
<svg version="1.1" id="Capa_1" xmlns="http://www.w3.org/2000/svg" xmlns:xlink="http://www.w3.org/1999/xlink" x="0px" y="0px"
	 viewBox="0 0 512 512" style="enable-background:new 0 0 512 512;" xml:space="preserve">
<path style="fill:#303C42;" d="M405.333,42.667h-44.632c-4.418-12.389-16.147-21.333-30.035-21.333h-32.229
	C288.417,8.042,272.667,0,256,0c-16.667,0-32.417,8.042-42.438,21.333h-32.229c-13.888,0-25.617,8.944-30.035,21.333h-44.632
	C83.146,42.667,64,61.802,64,85.333v384C64,492.865,83.146,512,106.667,512h298.667C428.854,512,448,492.865,448,469.333v-384
	C448,61.802,428.854,42.667,405.333,42.667z"/>
<path style="fill:#78909C;" d="M170.667,53.333c0-5.885,4.792-10.667,10.667-10.667h37.917c3.792,0,7.313-2.021,9.208-5.302
	c5.854-10.042,16.146-16.031,27.542-16.031c11.396,0,21.688,5.99,27.542,16.031c1.896,3.281,5.417,5.302,9.208,5.302h37.917
	c5.875,0,10.667,4.781,10.667,10.667V64c0,11.76-9.563,21.333-21.333,21.333H192c-11.771,0-21.333-9.573-21.333-21.333V53.333z"/>
<path style="opacity:0.1;enable-background:new    ;" d="M320,64H192c-9.652,0-17.497-6.56-20.125-15.361
	c-0.716,1.432-1.208,2.987-1.208,4.694V64c0,11.76,9.563,21.333,21.333,21.333h128c11.771,0,21.333-9.573,21.333-21.333V53.333
	c0-1.708-0.492-3.263-1.208-4.695C337.497,57.439,329.652,64,320,64z"/>
<path style="fill:#FFFFFF;" d="M426.667,469.333c0,11.76-9.563,21.333-21.333,21.333H106.667c-11.771,0-21.333-9.573-21.333-21.333
	v-384c0-11.76,9.563-21.333,21.333-21.333h42.667c0,23.531,19.146,42.667,42.667,42.667h128c23.521,0,42.667-19.135,42.667-42.667
	h42.667c11.771,0,21.333,9.573,21.333,21.333V469.333z"/>
<linearGradient id="SVGID_1_" gradientUnits="userSpaceOnUse" x1="-35.761" y1="645.3397" x2="-23.3951" y2="632.9738" gradientTransform="matrix(21.3333 0 0 -21.3333 996.3334 13791.667)">
	<stop  offset="0" style="stop-color:#000000;stop-opacity:0.1"/>
	<stop  offset="1" style="stop-color:#000000;stop-opacity:0"/>
</linearGradient>
<path style="fill:url(#SVGID_1_);" d="M405.333,64h-42.667c0,23.531-19.146,42.667-42.667,42.667H192
	c-11.289,0-21.501-4.487-29.141-11.673l263.807,263.806V85.333C426.667,73.573,417.104,64,405.333,64z"/>
<path style="fill:#FFFFFF;" d="M160.122,92.069L160,92.134l1.008,1.008C160.69,92.803,160.43,92.418,160.122,92.069z"/>
<path style="fill:#303C42;" d="M202.667,170.667h-64c-5.896,0-10.667,4.771-10.667,10.667v64c0,5.896,4.771,10.667,10.667,10.667h64
	c5.896,0,10.667-4.771,10.667-10.667v-64C213.333,175.438,208.563,170.667,202.667,170.667z"/>
<rect x="149.333" y="192" style="fill:#7CB342;" width="42.667" height="42.667"/>
<path style="fill:#303C42;" d="M202.667,341.333h-64c-5.896,0-10.667,4.771-10.667,10.667v64c0,5.896,4.771,10.667,10.667,10.667h64
	c5.896,0,10.667-4.771,10.667-10.667v-64C213.333,346.104,208.563,341.333,202.667,341.333z"/>
<rect x="149.333" y="362.667" style="fill:#D32F2F;" width="42.667" height="42.667"/>
<g>
	<circle style="fill:#303C42;" cx="277.333" cy="181.333" r="10.667"/>
	<circle style="fill:#303C42;" cx="341.333" cy="181.333" r="10.667"/>
	<path style="fill:#303C42;" d="M309.333,256c38.156,0,51.656-26.115,52.208-27.229c2.604-5.208,0.51-11.479-4.667-14.156
		c-5.177-2.719-11.583-0.646-14.344,4.479c-0.344,0.635-8.677,15.573-33.198,15.573c-24.333,0-32.729-14.719-33.188-15.563
		c-2.667-5.177-8.99-7.229-14.25-4.646c-5.271,2.635-7.406,9.042-4.771,14.313C257.677,229.885,271.177,256,309.333,256z"/>
	<circle style="fill:#303C42;" cx="277.333" cy="352" r="10.667"/>
	<circle style="fill:#303C42;" cx="341.333" cy="352" r="10.667"/>
	<path style="fill:#303C42;" d="M309.333,384c-38.156,0-51.656,26.115-52.208,27.229c-2.604,5.208-0.51,11.479,4.667,14.156
		c5.156,2.698,11.573,0.656,14.344-4.479c0.344-0.635,8.677-15.573,33.198-15.573c24.333,0,32.729,14.719,33.188,15.563
		c1.885,3.656,5.615,5.771,9.49,5.771c1.604,0,3.229-0.365,4.76-1.125c5.271-2.635,7.406-9.042,4.771-14.313
		C360.99,410.115,347.49,384,309.333,384z"/>
</g>
<linearGradient id="SVGID_2_" gradientUnits="userSpaceOnUse" x1="-45.7127" y1="638.6164" x2="-23.6936" y2="628.3524" gradientTransform="matrix(21.3333 0 0 -21.3333 996.3334 13791.667)">
	<stop  offset="0" style="stop-color:#FFFFFF;stop-opacity:0.2"/>
	<stop  offset="1" style="stop-color:#FFFFFF;stop-opacity:0"/>
</linearGradient>
<path style="fill:url(#SVGID_2_);" d="M405.333,42.667h-44.632c-4.418-12.389-16.147-21.333-30.035-21.333h-32.229
	C288.417,8.042,272.667,0,256,0c-16.667,0-32.417,8.042-42.438,21.333h-32.229c-13.888,0-25.617,8.944-30.035,21.333h-44.632
	C83.146,42.667,64,61.802,64,85.333v384C64,492.865,83.146,512,106.667,512h298.667C428.854,512,448,492.865,448,469.333v-384
	C448,61.802,428.854,42.667,405.333,42.667z"/>
<g>
</g>
<g>
</g>
<g>
</g>
<g>
</g>
<g>
</g>
<g>
</g>
<g>
</g>
<g>
</g>
<g>
</g>
<g>
</g>
<g>
</g>
<g>
</g>
<g>
</g>
<g>
</g>
<g>
</g>
</svg>
