<svg id="Capa_1" enable-background="new 0 0 510 510" height="512" viewBox="0 0 510 510" width="512" xmlns="http://www.w3.org/2000/svg" xmlns:xlink="http://www.w3.org/1999/xlink"><linearGradient id="lg1"><stop offset="0" stop-color="#fe646f"/><stop offset=".593" stop-color="#fb2b3a"/><stop offset="1" stop-color="#c41926"/></linearGradient><linearGradient id="SVGID_1_" gradientUnits="userSpaceOnUse" x1="83.252" x2="484.013" xlink:href="#lg1" y1="255" y2="255"/><linearGradient id="SVGID_2_" gradientUnits="userSpaceOnUse" x1="-86.795" x2="392.614" xlink:href="#lg1" y1="277.009" y2="277.009"/><linearGradient id="SVGID_3_" gradientUnits="userSpaceOnUse" x1="138.811" x2="413.978" y1="255" y2="255"><stop offset="0" stop-color="#f8f6f7"/><stop offset=".1788" stop-color="#f8f6f7"/><stop offset="1" stop-color="#e7e6f5"/></linearGradient><linearGradient id="SVGID_4_" gradientUnits="userSpaceOnUse" x1="-5.243" x2="352.545" y1="255.271" y2="255.271"><stop offset="0" stop-color="#f8f6f7"/><stop offset="1" stop-color="#d1ceeb"/></linearGradient><linearGradient id="SVGID_5_" gradientUnits="userSpaceOnUse" x1="78.752" x2="466.151" xlink:href="#lg1" y1="255" y2="255"/><linearGradient id="lg2"><stop offset="0" stop-color="#fef056"/><stop offset=".5213" stop-color="#f4d902"/><stop offset="1" stop-color="#fe9738"/></linearGradient><linearGradient id="SVGID_6_" gradientUnits="userSpaceOnUse" x1="122.25" x2="442.424" xlink:href="#lg2" y1="249.415" y2="249.415"/><linearGradient id="SVGID_7_" gradientUnits="userSpaceOnUse" x1="86.905" x2="389.819" xlink:href="#lg2" y1="153.069" y2="153.069"/><linearGradient id="SVGID_8_" gradientUnits="userSpaceOnUse" x1="95.566" x2="392.38" xlink:href="#lg2" y1="186.063" y2="186.063"/><linearGradient id="SVGID_9_" gradientUnits="userSpaceOnUse" x1="63.205" x2="393.481" xlink:href="#lg2" y1="222.467" y2="222.467"/><linearGradient id="SVGID_10_" gradientUnits="userSpaceOnUse" x1="63.205" x2="393.481" xlink:href="#lg2" y1="320.674" y2="320.674"/><linearGradient id="SVGID_11_" gradientUnits="userSpaceOnUse" x1="155.249" x2="414.462" xlink:href="#lg2" y1="255" y2="255"/><linearGradient id="SVGID_12_" gradientUnits="userSpaceOnUse" x1="-43.795" x2="375.731" xlink:href="#lg2" y1="254.994" y2="254.994"/><linearGradient id="lg3"><stop offset="0" stop-color="#fbc56d"/><stop offset=".593" stop-color="#c86d36"/><stop offset="1" stop-color="#904d24"/></linearGradient><linearGradient id="SVGID_13_" gradientUnits="userSpaceOnUse" x1="58.167" x2="142.497" xlink:href="#lg3" y1="61.104" y2="61.104"/><linearGradient id="SVGID_14_" gradientUnits="userSpaceOnUse" x1="58.167" x2="142.497" xlink:href="#lg3" y1="158.052" y2="158.052"/><linearGradient id="SVGID_15_" gradientUnits="userSpaceOnUse" x1="58.167" x2="142.497" xlink:href="#lg3" y1="255" y2="255"/><linearGradient id="SVGID_16_" gradientUnits="userSpaceOnUse" x1="58.167" x2="142.497" xlink:href="#lg3" y1="351.948" y2="351.948"/><linearGradient id="SVGID_17_" gradientUnits="userSpaceOnUse" x1="58.167" x2="142.497" xlink:href="#lg3" y1="448.896" y2="448.896"/><g><path d="m443.207 510h-338.003c-12.464 0-22.568-10.104-22.568-22.568v-464.864c0-12.464 10.104-22.568 22.568-22.568h338.003c12.464 0 22.568 10.104 22.568 22.568v464.864c0 12.464-10.104 22.568-22.568 22.568z" fill="url(#SVGID_1_)"/><path d="m339.568 273.79 46.179-46.179c4.937-4.937 4.881-12.976-.167-17.842-4.955-4.777-12.937-4.409-17.803.458l-45.886 45.886c-.344.344-.692.679-1.045 1.007-9.731 9.037-23.555-5.298-14.352-14.872l46.02-47.871c4.881-4.881 4.881-12.796 0-17.678s-12.796-4.881-17.678 0l-47.871 46.02c-9.574 9.204-23.909-4.62-14.872-14.352.328-.353.663-.701 1.007-1.045l45.886-45.886c4.867-4.866 5.234-12.848.458-17.803-4.866-5.048-12.906-5.104-17.842-.167l-46.179 46.179c-16.78 16.78-21.847 40.247-14.14 57.968l-96.885-95.869c-4.099-4.099-10.745-4.099-14.844 0-9.146 9.146-10.821 23.372-4.05 34.392l73.556 119.709-74.678 68.915c-9.049 8.097-9.502 22.112-.995 30.777 8.615 8.775 22.851 8.447 31.052-.715l73.498-79.627c4.779-.721 9.408-2.914 13.163-6.667l11.375-11.375 79.39 99.807c9.676 9.676 25.365 9.676 35.041 0s9.676-25.365 0-35.041l-84.567-83.68c17.629 7.251 40.68 2.1 57.229-14.449z" fill="url(#SVGID_2_)"/><circle cx="274.205" cy="255" fill="url(#SVGID_3_)" r="116.934"/><path d="m343.752 349.007-61.415-60.771c17.63 7.254 40.682 2.102 57.231-14.447l46.179-46.179c.635-.635 1.184-1.322 1.653-2.046-1.667-6.429-3.866-12.645-6.55-18.594-4.445-1.408-9.567-.252-13.074 3.256l-45.886 45.886c-.344.344-.692.679-1.045 1.007-9.731 9.037-23.555-5.298-14.352-14.872l46.02-47.871c4.881-4.881 4.881-12.796 0-17.678s-12.796-4.881-17.678 0l-47.871 46.02c-9.574 9.204-23.909-4.62-14.872-14.352.328-.353.663-.701 1.007-1.045l45.886-45.886c3.509-3.509 4.665-8.633 3.254-13.079-5.947-2.683-12.16-4.882-18.587-6.549-.726.47-1.416 1.02-2.052 1.657l-46.179 46.179c-16.78 16.78-21.847 40.247-14.14 57.968l-61.811-61.163c-11.097 15.309-18.575 33.41-21.176 53.053l40.763 66.341-19.427 17.927c7.202 9.887 15.915 18.6 25.801 25.802l22.503-24.379c4.779-.721 9.408-2.914 13.163-6.667l11.375-11.375 48.985 61.583c15.532-3.708 29.86-10.511 42.295-19.726z" fill="url(#SVGID_4_)"/><path d="m443.207 0h-40.834c12.464 0 22.568 10.104 22.568 22.568v464.864c0 12.464-10.104 22.568-22.568 22.568h40.834c12.464 0 22.568-10.104 22.568-22.568v-464.864c0-12.464-10.104-22.568-22.568-22.568z" fill="url(#SVGID_5_)"/><path d="m412.022 183.327c-4.955-4.776-12.937-4.409-17.803.458l-45.886 45.886c-.344.344-.692.679-1.045 1.007-9.731 9.037-23.555-5.298-14.352-14.872l46.02-47.871c4.881-4.881 4.881-12.796 0-17.678-4.881-4.881-12.796-4.881-17.678 0l-47.871 46.02c-9.574 9.204-23.909-4.621-14.872-14.352.328-.353.663-.701 1.007-1.045l45.886-45.886c4.867-4.867 5.234-12.848.458-17.803-4.866-5.048-12.906-5.104-17.842-.167l-46.179 46.179c-19.307 19.307-23.118 47.473-9.792 65.545 1.932 2.621 1.602 6.267-.825 8.438l-120.426 111.131c-9.049 8.098-9.502 22.112-.995 30.777 8.615 8.775 22.851 8.447 31.052-.715l111.147-120.416c2.171-2.426 5.817-2.756 8.437-.824 18.072 13.327 46.238 9.517 65.546-9.791l46.179-46.179c4.938-4.937 4.882-12.976-.166-17.842z" fill="url(#SVGID_6_)"/><g><path d="m345.885 117.191c-4.866-5.048-12.906-5.104-17.842-.167l-5.592 5.592c1.082 4.275-.14 9.054-3.465 12.379l-39.254 39.359c-.344.344-.679.692-1.007 1.045-9.037 9.731 5.298 23.555 14.872 14.352l2.119-1.886c.197-2.002 1.062-4.047 2.818-5.939.328-.353.663-.701 1.007-1.045l45.886-45.886c4.867-4.867 5.235-12.849.458-17.804z" fill="url(#SVGID_7_)"/><path d="m328.864 222.659c.353-.327 1.139-1.101 1.139-1.101.277-1.961 1.191-3.941 2.932-5.752l46.02-47.871c4.881-4.881 4.881-12.796 0-17.678s-12.796-4.881-17.678 0l-5.594 5.377c1.214 4.228.16 8.97-3.17 12.3l-38.001 39.852c-9.203 9.575 4.621 23.91 14.352 14.873z" fill="url(#SVGID_8_)"/><path d="m412.022 183.327c-4.955-4.777-12.937-4.409-17.803.458l-5.261 5.26c1.136 4.183.075 8.839-3.21 12.124l-46.179 46.179c-7.918 7.918-17.326 13.224-26.916 15.817 17.031 5.084 37.996-.455 53.357-15.817l46.179-46.179c4.937-4.937 4.881-12.976-.167-17.842z" fill="url(#SVGID_9_)"/><path d="m257.297 295.589 29.708-32.186c-4.673-1.295-9.065-3.376-12.982-6.264-2.62-1.932-6.266-1.602-8.437.824l-29.106 31.533c-1.445-1.378-2.752-2.959-3.858-4.759l-4.669-7.598-17.207 15.879c5.314 8.649 4.229 19.776-2.656 27.235l-53.652 58.126c-.822.918-1.718 1.723-2.65 2.463 8.689 6.919 21.483 6.036 29.091-2.463l63.837-69.16z" fill="url(#SVGID_10_)"/></g><path d="m151.944 159.693 78.677 128.044c8.011 13.038 26.099 15.167 36.919 4.347l11.375-11.375 79.39 99.807c9.676 9.676 25.365 9.676 35.041 0s9.676-25.365 0-35.041l-222.508-220.174c-4.099-4.099-10.745-4.099-14.844 0-9.146 9.146-10.821 23.372-4.05 34.392z" fill="url(#SVGID_11_)"/><path d="m393.346 345.475-222.508-220.174c-4.099-4.099-10.745-4.099-14.844 0-1.996 1.996-3.614 4.244-4.888 6.638l215.798 213.536c9.676 9.676 9.676 25.365 0 35.041-1.328 1.328-2.777 2.456-4.3 3.419 9.577 6.057 22.393 4.929 30.741-3.419 9.677-9.676 9.677-25.364.001-35.041z" fill="url(#SVGID_12_)"/><g><path d="m100.417 81.733h-35.562c-11.393 0-20.63-9.236-20.63-20.63 0-11.393 9.236-20.63 20.63-20.63h35.562c11.393 0 20.63 9.236 20.63 20.63s-9.237 20.63-20.63 20.63z" fill="url(#SVGID_13_)"/><path d="m100.417 178.682h-35.562c-11.393 0-20.63-9.236-20.63-20.63 0-11.393 9.236-20.63 20.63-20.63h35.562c11.393 0 20.63 9.236 20.63 20.63 0 11.393-9.237 20.63-20.63 20.63z" fill="url(#SVGID_14_)"/><path d="m100.417 275.63h-35.562c-11.393 0-20.63-9.236-20.63-20.63 0-11.393 9.236-20.63 20.63-20.63h35.562c11.393 0 20.63 9.236 20.63 20.63 0 11.393-9.237 20.63-20.63 20.63z" fill="url(#SVGID_15_)"/><path d="m100.417 372.578h-35.562c-11.393 0-20.63-9.236-20.63-20.63 0-11.393 9.236-20.63 20.63-20.63h35.562c11.393 0 20.63 9.236 20.63 20.63s-9.237 20.63-20.63 20.63z" fill="url(#SVGID_16_)"/><path d="m100.417 469.526h-35.562c-11.393 0-20.63-9.236-20.63-20.63 0-11.393 9.236-20.63 20.63-20.63h35.562c11.393 0 20.63 9.236 20.63 20.63s-9.237 20.63-20.63 20.63z" fill="url(#SVGID_17_)"/></g></g></svg>